<svg aria-hidden="true" style="position: absolute; width: 0; height: 0; overflow: hidden;" version="1.1" xmlns="http://www.w3.org/2000/svg" xmlns:xlink="http://www.w3.org/1999/xlink">
<defs>
<symbol id="icon-chevron-thin-right" viewBox="0 0 20 20">
<path d="M13.25 10l-7.141-7.42c-0.268-0.27-0.268-0.707 0-0.979 0.268-0.27 0.701-0.27 0.969 0l7.83 7.908c0.268 0.271 0.268 0.709 0 0.979l-7.83 7.908c-0.268 0.271-0.701 0.27-0.969 0s-0.268-0.707 0-0.979l7.141-7.417z"></path>
</symbol>
<symbol id="icon-grid" viewBox="0 0 20 20">
<path d="M8 4h-3c-0.553 0-1 0.447-1 1v3c0 0.552 0.447 1 1 1h3c0.553 0 1-0.448 1-1v-3c0-0.552-0.447-1-1-1zM15 4h-3c-0.553 0-1 0.447-1 1v3c0 0.552 0.447 1 1 1h3c0.553 0 1-0.448 1-1v-3c0-0.552-0.447-1-1-1zM8 11h-3c-0.553 0-1 0.447-1 1v3c0 0.552 0.447 1 1 1h3c0.553 0 1-0.448 1-1v-3c0-0.552-0.447-1-1-1zM15 11h-3c-0.553 0-1 0.447-1 1v3c0 0.552 0.447 1 1 1h3c0.553 0 1-0.448 1-1v-3c0-0.552-0.447-1-1-1z"></path>
</symbol>
<symbol id="icon-flexbox" viewBox="0 0 24 24">
<path d="M18.961 6.828l-6.961 4.027-6.961-4.027 6.456-3.689c0.112-0.064 0.232-0.105 0.355-0.124 0.218-0.034 0.445 0.003 0.654 0.124zM11.526 22.961c0.141 0.076 0.303 0.119 0.474 0.119 0.173 0 0.336-0.044 0.478-0.121 0.356-0.058 0.701-0.18 1.017-0.36l7.001-4.001c0.618-0.357 1.060-0.897 1.299-1.514 0.133-0.342 0.202-0.707 0.205-1.084v-8c0-0.478-0.113-0.931-0.314-1.334-0.022-0.071-0.052-0.14-0.091-0.207-0.046-0.079-0.1-0.149-0.162-0.21-0.031-0.043-0.064-0.086-0.097-0.127-0.23-0.286-0.512-0.528-0.831-0.715l-7.009-4.005c-0.61-0.352-1.3-0.465-1.954-0.364-0.363 0.057-0.715 0.179-1.037 0.363l-7.001 4.001c-0.383 0.221-0.699 0.513-0.941 0.85-0.060 0.060-0.114 0.13-0.159 0.207-0.039 0.068-0.070 0.138-0.092 0.21-0.040 0.080-0.076 0.163-0.108 0.246-0.132 0.343-0.201 0.708-0.204 1.078v8.007c0.001 0.71 0.248 1.363 0.664 1.878 0.23 0.286 0.512 0.528 0.831 0.715l7.009 4.005c0.324 0.187 0.67 0.307 1.022 0.362zM11 12.587v7.991l-6.495-3.711c-0.111-0.065-0.207-0.148-0.285-0.245-0.139-0.172-0.22-0.386-0.22-0.622v-7.462zM13 20.578v-7.991l7-4.049v7.462c-0.001 0.121-0.025 0.246-0.070 0.362-0.080 0.206-0.225 0.384-0.426 0.5z"></path>
</symbol>
<symbol id="icon-mail" viewBox="0 0 24 24">
<path d="M3 7.921l8.427 5.899c0.34 0.235 0.795 0.246 1.147 0l8.426-5.899v10.079c0 0.272-0.11 0.521-0.295 0.705s-0.433 0.295-0.705 0.295h-16c-0.272 0-0.521-0.11-0.705-0.295s-0.295-0.433-0.295-0.705zM1 5.983c0 0.010 0 0.020 0 0.030v11.987c0 0.828 0.34 1.579 0.88 2.12s1.292 0.88 2.12 0.88h16c0.828 0 1.579-0.34 2.12-0.88s0.88-1.292 0.88-2.12v-11.988c0-0.010 0-0.020 0-0.030-0.005-0.821-0.343-1.565-0.88-2.102-0.541-0.54-1.292-0.88-2.12-0.88h-16c-0.828 0-1.579 0.34-2.12 0.88-0.537 0.537-0.875 1.281-0.88 2.103zM20.894 5.554l-8.894 6.225-8.894-6.225c0.048-0.096 0.112-0.183 0.188-0.259 0.185-0.185 0.434-0.295 0.706-0.295h16c0.272 0 0.521 0.11 0.705 0.295 0.076 0.076 0.14 0.164 0.188 0.259z"></path>
</symbol>
<symbol id="icon-linkedin" viewBox="0 0 32 32">
<path d="M29 0h-26c-1.65 0-3 1.35-3 3v26c0 1.65 1.35 3 3 3h26c1.65 0 3-1.35 3-3v-26c0-1.65-1.35-3-3-3zM12 26h-4v-14h4v14zM10 10c-1.106 0-2-0.894-2-2s0.894-2 2-2c1.106 0 2 0.894 2 2s-0.894 2-2 2zM26 26h-4v-8c0-1.106-0.894-2-2-2s-2 0.894-2 2v8h-4v-14h4v2.481c0.825-1.131 2.087-2.481 3.5-2.481 2.488 0 4.5 2.238 4.5 5v9z"></path>
</symbol>
<symbol id="icon-archlinux" viewBox="0 0 32 32">
<path fill="#1793d1" style="fill: var(--color1, #1793d1)" d="M15.187 0.807c-1.353 3.315-2.168 5.485-3.673 8.702 0.924 0.98 2.057 2.119 3.897 3.405-1.979-0.814-3.328-1.631-4.337-2.479-1.927 4.021-4.947 9.749-11.074 20.758 4.816-2.78 8.549-4.493 12.028-5.149-0.149-0.641-0.234-1.338-0.229-2.063l0.005-0.154c0.077-3.086 1.682-5.459 3.583-5.297 1.901 0.16 3.378 2.794 3.304 5.879-0.014 0.581-0.080 1.139-0.195 1.657 3.441 0.673 7.136 2.383 11.886 5.125-0.936-1.724-1.773-3.278-2.571-4.759-1.258-0.975-2.569-2.244-5.244-3.617 1.839 0.478 3.156 1.029 4.182 1.645-8.12-15.113-8.775-17.122-11.56-23.654zM30.53 28.48v-0.831h-0.311v-0.112h0.749v0.112h-0.313v0.831h-0.125zM31.097 28.48v-0.943h0.189l0.223 0.668c0.021 0.063 0.036 0.11 0.045 0.141 0.011-0.034 0.027-0.085 0.051-0.152l0.225-0.658h0.169v0.943h-0.121v-0.791l-0.275 0.791h-0.112l-0.273-0.803v0.803h-0.121z"></path>
</symbol>
<symbol id="icon-bootstrap" viewBox="0 0 32 32">
<path fill="#563d7c" style="fill: var(--color2, #563d7c)" d="M26.667 0h-21.333c-2.943 0.008-5.325 2.391-5.333 5.333v21.333c0 2.933 2.4 5.333 5.333 5.333h21.333c2.933 0 5.333-2.4 5.333-5.333v-21.333c0-2.933-2.4-5.333-5.333-5.333zM23.751 22.473c-0.267 0.643-0.689 1.209-1.231 1.645-0.56 0.453-1.269 0.827-2.143 1.093-0.872 0.271-1.909 0.407-3.111 0.407h-8.576v-18.667h9.069c1.677 0 3.021 0.377 4.027 1.147 1.013 0.773 1.517 1.925 1.517 3.48 0 0.94-0.229 1.747-0.691 2.413-0.459 0.663-1.12 1.181-1.973 1.541v0.061c1.139 0.24 2.020 0.78 2.6 1.62s0.877 1.901 0.877 3.183c0 0.717-0.139 1.4-0.4 2.037zM20.049 17.873c-0.547-0.5-1.315-0.744-2.307-0.744h-5.763v5.824h5.779c0.987 0 1.76-0.256 2.307-0.773 0.547-0.513 0.827-1.245 0.827-2.187-0.009-0.92-0.28-1.632-0.827-2.12zM19.249 14.109c0.528-0.448 0.787-1.089 0.787-1.925 0-0.939-0.233-1.605-0.707-1.987-0.469-0.38-1.147-0.577-2.037-0.577h-5.333v5.151h5.333c0.777 0 1.44-0.227 1.957-0.661z"></path>
</symbol>
<symbol id="icon-gimp" viewBox="0 0 32 32">
<path fill="#5c5543" style="fill: var(--color3, #5c5543)" d="M31.44 3.2c-1.284 1.608-3.4 8.635-15.28 8.947-5.671 0.149-8.48-6.308-8.48-6.308l-0.445 10.361c-1.108-1.389-2.593-2.273-4.019-2.32-0.042-0.002-0.092-0.003-0.142-0.003-0.671 0-1.29 0.222-1.787 0.597l0.008-0.005c-0.884 0.669-1.303 1.793-1.293 3.040 0.008 1.245 0.44 2.62 1.293 3.861s1.968 2.116 3.099 2.52c0.608 0.219 1.221 0.285 1.8 0.209 8.039 6.411 29.536 11.311 25.247-20.899zM11.205 11.8c1.687 0 3.085 1.253 3.485 2.928 0.645-1.587 2.152-2.703 3.908-2.703 2.344 0 4.237 1.987 4.237 4.429 0 2.444-1.893 4.445-4.237 4.445-2.041 0-3.747-1.52-4.153-3.525-0.583 1.304-1.804 2.221-3.24 2.221-1.22 0-2.288-0.663-2.937-1.661-0.135-0.304-0.263-0.552-0.405-0.792l0.019 0.036c-0.173-0.44-0.273-0.95-0.273-1.483 0-0.001 0-0.001 0-0.002v0c0-2.139 1.597-3.896 3.596-3.895zM11.205 12.28c-1.712 0-3.107 1.517-3.107 3.415s1.395 3.412 3.107 3.412c0.285 0 0.556-0.057 0.819-0.136-1.197-0.048-2.151-1.078-2.152-2.341v-0c0.001-1.295 1.001-2.344 2.235-2.344v0c1.060 0 1.948 0.775 2.177 1.815l0.003 0.016c0.016-0.14 0.039-0.276 0.039-0.421 0-1.897-1.408-3.413-3.12-3.415zM18.599 12.455c-2.101 0-3.813 1.779-3.813 4 0 2.223 1.712 4.011 3.813 4.011 0.788 0 1.52-0.251 2.128-0.683-0.337 0.159-0.73 0.252-1.144 0.253h-0c-1.579-0.002-2.859-1.345-2.859-3.003v0c0-1.657 1.28-3.001 2.859-3.003h0c0.001 0 0.001 0 0.002 0 1.397 0 2.561 1.051 2.811 2.441l0.003 0.019 0.004-0.035c0-2.223-1.703-4-3.804-4.001zM3.205 14.308c1.384 0.047 2.941 1.027 4.011 2.581 0.808 1.176 1.219 2.488 1.227 3.636s-0.376 2.119-1.128 2.688c-0.752 0.568-1.747 0.64-2.776 0.273-1.029-0.369-2.085-1.177-2.893-2.352-0.807-1.175-1.215-2.489-1.223-3.637-0.009-1.149 0.376-2.119 1.127-2.688 0.421-0.315 0.951-0.505 1.526-0.505 0.046 0 0.091 0.001 0.136 0.004l-0.006-0zM18.792 14.635c0 0 0 0 0 0-0.741 0-1.341 0.63-1.341 1.408 0 0.001 0 0.003 0 0.004v-0c0.001 0.776 0.601 1.405 1.341 1.405 0 0 0 0 0 0v0c0.739-0.001 1.339-0.629 1.34-1.405v-0c0-0.001 0-0.003 0-0.004 0-0.777-0.6-1.407-1.34-1.408h-0zM11.265 14.928c0 0 0 0 0 0-0.487 0-0.882 0.414-0.883 0.925v0c0 0.001 0 0.002 0 0.003 0 0.512 0.395 0.927 0.883 0.927 0 0 0 0 0 0v0c0 0 0 0 0 0 0.487 0 0.883-0.415 0.883-0.927 0-0.001 0-0.002 0-0.003v0c-0.001-0.511-0.396-0.925-0.883-0.925v0zM2.713 15.225c-0 0-0.001 0-0.001 0-0.823 0-1.49 0.84-1.491 1.876v0c0 0 0 0 0 0 0 1.037 0.667 1.877 1.491 1.877 0.001 0 0.002 0 0.003 0h-0c0.822-0.002 1.488-0.842 1.488-1.877 0 0 0 0 0 0v0c-0.001-1.036-0.667-1.875-1.489-1.876h-0zM21.615 20.556c0 0 1.983 0.58 2.681 1.527 0.697 0.944 0.259 1.527 0.076 2.733-0.269-0.704-0.543-1.256-0.828-1.577-1.080 1.679-4.139 2.477-8.24 2.079 1.84-0.096 3.268-0.384 4.401-0.779-1.867 0.12-4.285-0.36-7.153-1.423 5.683 1.193 8.577 0.084 10.271-1.288-0.447-0.607-1.208-1.272-1.208-1.272z"></path>
</symbol>
<symbol id="icon-git" viewBox="0 0 32 32">
<path fill="#f05032" style="fill: var(--color4, #f05032)" d="M31.395 14.573l-13.972-13.971c-0.805-0.804-2.109-0.804-2.917 0l-2.895 2.9 3.68 3.68c0.86-0.287 1.839-0.093 2.519 0.588 0.688 0.687 0.877 1.677 0.584 2.533l3.544 3.547c0.86-0.297 1.849-0.104 2.533 0.58 0.961 0.96 0.961 2.512 0 3.472-0.959 0.959-2.508 0.959-3.467 0-0.719-0.721-0.899-1.783-0.539-2.661l-3.319-3.301v8.7c0.235 0.115 0.456 0.271 0.651 0.464 0.951 0.961 0.951 2.511 0 3.467-0.959 0.961-2.519 0.961-3.479 0-0.959-0.959-0.959-2.505 0-3.464 0.243-0.24 0.516-0.421 0.807-0.541v-8.785c-0.289-0.121-0.565-0.296-0.8-0.535-0.727-0.727-0.901-1.789-0.528-2.679l-3.616-3.633-9.581 9.575c-0.8 0.807-0.8 2.112 0 2.919l13.973 13.969c0.805 0.805 2.109 0.805 2.915 0l13.907-13.907c0.807-0.804 0.807-2.109 0-2.916z"></path>
</symbol>
<symbol id="icon-github" viewBox="0 0 32 32">
<path d="M16 0.396c-8.84 0-16 7.164-16 16 0 7.071 4.584 13.067 10.94 15.18 0.8 0.151 1.093-0.344 1.093-0.769 0-0.38-0.013-1.387-0.020-2.72-4.451 0.965-5.389-2.147-5.389-2.147-0.728-1.847-1.78-2.34-1.78-2.34-1.449-0.992 0.112-0.972 0.112-0.972 1.607 0.112 2.451 1.648 2.451 1.648 1.427 2.447 3.745 1.74 4.66 1.331 0.144-1.035 0.556-1.74 1.013-2.14-3.553-0.4-7.288-1.776-7.288-7.907 0-1.747 0.62-3.173 1.647-4.293-0.18-0.404-0.72-2.031 0.14-4.235 0 0 1.34-0.429 4.4 1.64 1.28-0.356 2.64-0.532 4-0.54 1.36 0.008 2.72 0.184 4 0.54 3.040-2.069 4.38-1.64 4.38-1.64 0.86 2.204 0.32 3.831 0.16 4.235 1.020 1.12 1.64 2.547 1.64 4.293 0 6.147-3.74 7.5-7.3 7.893 0.56 0.48 1.080 1.461 1.080 2.96 0 2.141-0.020 3.861-0.020 4.381 0 0.42 0.28 0.92 1.1 0.76 6.401-2.099 10.981-8.099 10.981-15.159 0-8.836-7.164-16-16-16z"></path>
</symbol>
<symbol id="icon-postman" viewBox="0 0 32 32">
<path fill="#ff6c37" style="fill: var(--color5, #ff6c37)" d="M18.036 0.132c-8.763-1.124-16.78 5.068-17.904 13.832-1.124 8.763 5.067 16.779 13.831 17.904 8.764 1.124 16.783-5.068 17.904-13.832 1.125-8.763-5.065-16.779-13.831-17.904zM21.331 10.112c-0.309 0.004-0.588 0.131-0.791 0.333v0l-5.937 5.937-1.267-1.267c5.852-5.835 6.907-5.891 7.995-5.004zM14.847 16.593l5.92-5.92c0.151-0.158 0.363-0.256 0.598-0.256 0.457 0 0.827 0.37 0.827 0.827 0 0.254-0.114 0.481-0.294 0.633l-0.001 0.001-6.265 5.5zM15.287 17.519l-1.467 0.317c-0.005 0.001-0.011 0.002-0.018 0.002-0.031 0-0.058-0.018-0.072-0.044l-0-0c-0.007-0.012-0.011-0.025-0.011-0.040 0-0.022 0.009-0.043 0.024-0.057v0l0.86-0.86zM11.549 16.907l1.563-1.563 1.172 1.171-2.639 0.568c-0.007 0.002-0.016 0.003-0.025 0.003-0.039 0-0.072-0.022-0.088-0.055l-0-0.001c-0.010-0.015-0.015-0.033-0.015-0.052 0-0.029 0.013-0.054 0.032-0.072l0-0zM6.688 24.984c-0.052-0.005-0.092-0.048-0.092-0.101 0-0.003 0-0.007 0-0.010l-0 0c0.003-0.024 0.013-0.045 0.029-0.061v0h0.003l1.261-1.261 1.629 1.629zM9.921 23.309c-0.098 0.052-0.164 0.153-0.164 0.27 0 0.025 0.003 0.050 0.009 0.073l-0-0.002 0.271 1.153c0.003 0.012 0.005 0.026 0.005 0.040 0 0.092-0.075 0.167-0.167 0.167-0.047 0-0.089-0.019-0.119-0.050l-0-0h-0.004l-1.637-1.639 5.016-5.011 2.427-0.524 1.165 1.165c-1.673 1.469-3.961 2.935-6.8 4.357zM16.96 18.739h-0.003l-1.119-1.119 6.265-5.5c0.058-0.052 0.11-0.107 0.157-0.167l0.002-0.003c-0.197 1.793-2.705 4.327-5.303 6.788zM21.836 10.125l-0.004-0.003c-0.437-0.439-0.707-1.045-0.707-1.714 0-1.342 1.088-2.429 2.429-2.429 0.594 0 1.138 0.213 1.561 0.567l-0.004-0.003-2.147 2.151c-0.029 0.029-0.047 0.069-0.047 0.113s0.018 0.084 0.047 0.113v0l1.663 1.663c-0.314 0.159-0.685 0.253-1.077 0.253-0.669 0-1.275-0.271-1.713-0.71v0zM25.273 10.125c-0.107 0.106-0.226 0.202-0.353 0.285l-0.009 0.005h-0.001l-1.609-1.609 2.044-2.044c0.881 0.96 0.849 2.443-0.072 3.363zM25.14 8.067c-0.048 0.035-0.079 0.091-0.079 0.154 0 0.020 0.003 0.039 0.008 0.056l-0-0.001c0.036 0.072 0.057 0.156 0.057 0.246 0 0.135-0.048 0.259-0.129 0.355l0.001-0.001c-0.025 0.032-0.040 0.072-0.040 0.116 0 0.059 0.028 0.112 0.071 0.146l0 0c0.031 0.024 0.069 0.039 0.112 0.040h0c0.057-0.001 0.107-0.026 0.141-0.066l0-0c0.133-0.159 0.213-0.365 0.213-0.589 0-0.15-0.036-0.292-0.1-0.417l0.002 0.005c-0.034-0.048-0.089-0.079-0.151-0.079-0.040 0-0.078 0.013-0.108 0.035l0.001-0z"></path>
</symbol>
<symbol id="icon-react" viewBox="0 0 32 32">
<path fill="#61dafb" style="fill: var(--color6, #61dafb)" d="M16 13.148c-1.575 0-2.852 1.277-2.852 2.852s1.277 2.852 2.852 2.852v0c1.575 0 2.852-1.277 2.852-2.852s-1.277-2.852-2.852-2.852v0zM8.011 21.673l-0.629-0.16c-4.691-1.185-7.381-3.197-7.381-5.519s2.691-4.333 7.381-5.519l0.629-0.159 0.177 0.624c0.545 1.86 1.163 3.443 1.899 4.957l-0.082-0.186 0.135 0.284-0.135 0.284c-0.656 1.329-1.275 2.912-1.761 4.551l-0.056 0.22zM7.089 11.933c-3.565 1.001-5.753 2.533-5.753 4.061 0 1.527 2.188 3.059 5.753 4.061 0.512-1.62 1.046-2.965 1.662-4.263l-0.086 0.202c-0.531-1.098-1.066-2.443-1.511-3.828l-0.065-0.234zM23.989 21.673l-0.177-0.625c-0.544-1.859-1.162-3.441-1.9-4.954l0.081 0.184-0.135-0.284 0.135-0.284c0.656-1.329 1.275-2.911 1.762-4.55l0.056-0.221 0.177-0.624 0.631 0.159c4.689 1.185 7.38 3.197 7.38 5.52s-2.691 4.333-7.38 5.519zM23.335 15.995c0.64 1.385 1.169 2.747 1.576 4.061 3.567-1.003 5.753-2.535 5.753-4.061 0-1.528-2.188-3.059-5.753-4.061-0.511 1.619-1.045 2.963-1.662 4.262l0.086-0.2zM7.080 11.927l-0.177-0.623c-1.319-4.648-0.919-7.979 1.097-9.141 1.977-1.141 5.152 0.207 8.479 3.621l0.453 0.465-0.453 0.465c-1.146 1.19-2.207 2.482-3.162 3.853l-0.068 0.103-0.18 0.257-0.313 0.027c-1.875 0.151-3.596 0.439-5.264 0.86l0.218-0.047zM9.608 3.087c-0.357 0-0.673 0.077-0.94 0.231-1.325 0.764-1.56 3.42-0.647 7.004 1.21-0.285 2.681-0.521 4.18-0.658l0.131-0.010c0.894-1.264 1.792-2.37 2.756-3.414l-0.020 0.022c-2.080-2.025-4.049-3.175-5.46-3.175zM22.393 30.236c-0.001 0-0.001 0 0 0-1.9 0-4.34-1.431-6.872-4.031l-0.453-0.465 0.453-0.465c1.146-1.19 2.206-2.482 3.16-3.854l0.068-0.103 0.18-0.257 0.312-0.027c1.875-0.15 3.597-0.438 5.267-0.858l-0.218 0.046 0.629-0.159 0.179 0.624c1.316 4.645 0.917 7.977-1.099 9.139-0.449 0.259-0.988 0.411-1.562 0.411-0.016 0-0.031-0-0.047-0l0.002 0zM16.932 25.728c2.080 2.025 4.049 3.175 5.46 3.175h0.001c0.356 0 0.673-0.077 0.939-0.231 1.325-0.764 1.561-3.421 0.647-7.005-1.212 0.286-2.682 0.522-4.182 0.658l-0.13 0.010c-0.893 1.265-1.791 2.371-2.755 3.416l0.020-0.022zM24.92 11.927l-0.629-0.159c-1.453-0.376-3.175-0.664-4.939-0.806l-0.111-0.007-0.312-0.027-0.18-0.257c-1.021-1.474-2.082-2.766-3.237-3.966l0.009 0.010-0.453-0.465 0.453-0.465c3.325-3.413 6.499-4.761 8.479-3.621 2.016 1.163 2.416 4.493 1.099 9.14zM19.667 9.653c1.523 0.139 2.969 0.364 4.312 0.668 0.915-3.584 0.679-6.24-0.647-7.004-1.317-0.761-3.793 0.405-6.4 2.944 0.943 1.022 1.841 2.128 2.666 3.289l0.069 0.103zM9.608 30.236c-0.014 0-0.030 0-0.046 0-0.574 0-1.113-0.152-1.577-0.419l0.015 0.008c-2.016-1.161-2.416-4.492-1.097-9.139l0.176-0.624 0.629 0.159c1.54 0.388 3.239 0.661 5.047 0.812l0.313 0.027 0.179 0.257c1.022 1.475 2.083 2.767 3.239 3.967l-0.010-0.010 0.453 0.465-0.453 0.465c-2.531 2.6-4.971 4.031-6.868 4.031zM8.021 21.667c-0.915 3.584-0.679 6.241 0.647 7.005 1.316 0.751 3.791-0.407 6.4-2.944-0.943-1.022-1.841-2.129-2.667-3.29l-0.069-0.103c-1.629-0.146-3.099-0.382-4.534-0.711l0.224 0.043zM16 22.504c-1.097 0-2.225-0.048-3.355-0.141l-0.313-0.027-0.18-0.257c-0.544-0.768-1.139-1.691-1.697-2.639l-0.103-0.19c-0.452-0.758-0.971-1.732-1.45-2.728l-0.105-0.243-0.133-0.284 0.133-0.284c0.584-1.239 1.102-2.212 1.658-3.161l-0.103 0.191c0.552-0.955 1.159-1.907 1.8-2.829l0.18-0.257 0.313-0.027c1.005-0.090 2.174-0.142 3.355-0.142s2.35 0.052 3.505 0.153l-0.15-0.011 0.312 0.027 0.179 0.257c1.177 1.666 2.294 3.567 3.252 5.56l0.104 0.24 0.135 0.284-0.135 0.284c-1.058 2.232-2.176 4.133-3.439 5.925l0.083-0.125-0.179 0.257-0.312 0.027c-1.129 0.093-2.259 0.141-3.356 0.141zM13.071 21.059c1.973 0.148 3.885 0.148 5.86 0 1.004-1.445 1.978-3.104 2.827-4.836l0.101-0.228c-0.947-1.958-1.922-3.617-3.012-5.19l0.083 0.126c-0.877-0.071-1.898-0.111-2.929-0.111s-2.052 0.040-3.063 0.119l0.134-0.008c-1.008 1.447-1.983 3.106-2.83 4.84l-0.099 0.224c0.951 1.96 1.926 3.619 3.014 5.193l-0.085-0.13z"></path>
</symbol>
<symbol id="icon-sass" viewBox="0 0 32 32">
<path fill="#c69" style="fill: var(--color7, #c69)" d="M16 0c8.836 0 16 7.164 16 16s-7.164 16-16 16-16-7.164-16-16 7.164-16 16-16zM12.82 21.331c0.233 0.86 0.208 1.664-0.032 2.389l-0.087 0.24c-0.032 0.081-0.069 0.16-0.104 0.235-0.187 0.387-0.435 0.747-0.74 1.080-0.931 1.012-2.229 1.396-2.787 1.073-0.6-0.349-0.301-1.78 0.779-2.92 1.161-1.224 2.827-2.012 2.827-2.012v-0.004zM26.035 6.849c-0.723-2.844-5.436-3.779-9.896-2.193-2.652 0.943-5.525 2.424-7.591 4.356-2.457 2.295-2.848 4.295-2.687 5.131 0.569 2.948 4.609 4.876 6.271 6.307v0.008c-0.489 0.24-4.075 2.039-4.915 3.9-0.9 1.96 0.14 3.361 0.82 3.54 2.1 0.581 4.26-0.48 5.42-2.199 1.12-1.681 1.021-3.841 0.539-4.901 0.661-0.18 1.44-0.26 2.44-0.139 2.801 0.32 3.361 2.080 3.24 2.8-0.12 0.719-0.697 1.139-0.899 1.259-0.2 0.121-0.26 0.16-0.241 0.241 0.020 0.12 0.121 0.12 0.28 0.1 0.22-0.040 1.461-0.6 1.521-1.961 0.060-1.72-1.581-3.639-4.5-3.6-1.2 0.021-1.961 0.121-2.5 0.341-0.040-0.060-0.081-0.1-0.14-0.14-1.8-1.94-5.14-3.3-5-5.88 0.040-0.94 0.38-3.419 6.4-6.419 4.94-2.461 8.881-1.78 9.561-0.28 0.977 2.139-2.101 6.12-7.241 6.699-1.96 0.22-2.98-0.539-3.241-0.82-0.279-0.3-0.319-0.32-0.419-0.259-0.16 0.080-0.060 0.34 0 0.5 0.16 0.4 0.78 1.1 1.861 1.46 0.939 0.3 3.24 0.479 6-0.6 3.099-1.199 5.519-4.54 4.819-7.34z"></path>
</symbol>
<symbol id="icon-ubuntu" viewBox="0 0 32 32">
<path fill="#e95420" style="fill: var(--color8, #e95420)" d="M16 0c8.831 0 16 7.169 16 16s-7.169 16-16 16-16-7.169-16-16 7.169-16 16-16zM20.372 23.573c-1.021 0.588-1.372 1.896-0.781 2.919 0.588 1.020 1.896 1.371 2.917 0.779 1.021-0.588 1.372-1.896 0.78-2.919-0.588-1.020-1.895-1.371-2.916-0.779zM16 22.24c-0.94 0-1.831-0.209-2.628-0.58l-1.484 2.66c1.24 0.612 2.637 0.961 4.112 0.961 0.861 0 1.691-0.121 2.48-0.341 0.139-0.857 0.647-1.645 1.46-2.116 0.812-0.468 1.751-0.515 2.56-0.208 1.581-1.551 2.609-3.665 2.76-6.020l-3.047-0.044c-0.28 3.188-2.953 5.688-6.213 5.688zM9.76 16c0-2.111 1.049-3.975 2.653-5.107l-1.56-2.615c-1.872 1.24-3.26 3.159-3.841 5.38 0.675 0.539 1.107 1.379 1.107 2.32 0 0.939-0.432 1.759-1.107 2.319 0.581 2.22 1.969 4.139 3.841 5.379l1.56-2.62c-1.604-1.096-2.653-2.957-2.653-5.056zM5.12 13.864c-1.18 0-2.136 0.956-2.136 2.136s0.956 2.136 2.136 2.136 2.135-0.956 2.135-2.136-0.955-2.136-2.135-2.136zM16 9.76c3.26 0 5.933 2.5 6.213 5.687l3.047-0.045c-0.151-2.353-1.18-4.467-2.76-6.021-0.812 0.309-1.751 0.259-2.56-0.205-0.812-0.469-1.32-1.26-1.46-2.121-0.792-0.213-1.619-0.333-2.48-0.333-1.48 0-2.873 0.347-4.112 0.96l1.484 2.66c0.8-0.372 1.691-0.58 2.628-0.58zM20.372 8.425c1.020 0.589 2.328 0.241 2.919-0.78 0.588-1.020 0.241-2.328-0.784-2.92-1.020-0.587-2.328-0.239-2.919 0.785-0.588 1.019-0.24 2.325 0.784 2.915z"></path>
</symbol>
<symbol id="icon-visualstudiocode" viewBox="0 0 32 32">
<path fill="#007acc" style="fill: var(--color9, #007acc)" d="M30.867 3.449l-6.587-3.169c-0.253-0.124-0.55-0.197-0.864-0.197-0.55 0-1.049 0.223-1.409 0.584v0l-12.613 11.507-5.493-4.171c-0.221-0.169-0.501-0.271-0.805-0.271-0.346 0-0.661 0.132-0.897 0.348l-1.762 1.602c-0.269 0.245-0.436 0.596-0.436 0.987s0.167 0.741 0.434 0.984l0.001 0.001 4.764 4.347-4.764 4.347c-0.268 0.245-0.435 0.596-0.435 0.985s0.168 0.742 0.435 0.986l0.001 0.001 1.764 1.601c0.236 0.215 0.551 0.347 0.896 0.347 0.304 0 0.584-0.102 0.808-0.273l-0.003 0.002 5.493-4.171 12.613 11.507c0.36 0.361 0.858 0.584 1.408 0.584 0.314 0 0.611-0.073 0.876-0.203l-0.012 0.005 6.589-3.169c0.675-0.331 1.131-1.013 1.131-1.801 0-0.001 0-0.001 0-0.002v0-21.495c0-0 0-0 0-0 0-0.789-0.457-1.472-1.122-1.797l-0.012-0.005zM24.005 23.264l-9.571-7.264 9.571-7.264z"></path>
</symbol>
</defs>
</svg>
